<svg fill="none" height="24" viewBox="0 0 24 24" width="24" xmlns="http://www.w3.org/2000/svg"><g clip-rule="evenodd" fill="#47495f" fill-rule="evenodd"><path d="m7.08398 5.22265c.09273-.1391.24884-.22265.41602-.22265h11c.1844 0 .3538.10149.4408.26407s.0775.35985-.0248.51328l-2 3c-.0927.1391-.2488.22265-.416.22265h-11c-.1844 0-.35383-.10149-.44084-.26407s-.07747-.35985.02482-.51328zm.68361.77735-1.33333 2h9.79814l1.3333-2z"/><path d="m7.08398 15.2226c.09273-.139.24884-.2226.41602-.2226h11c.1844 0 .3538.1015.4408.2641s.0775.3598-.0248.5133l-2 3c-.0927.139-.2488.2226-.416.2226h-11c-.1844 0-.35383-.1015-.44084-.2641-.08701-.1625-.07747-.3598.02482-.5133zm.68361.7774-1.33333 2h9.79814l1.3333-2z"/><path d="m7.08398 13.7774c.09273.139.24884.2226.41602.2226h11c.1844 0 .3538-.1015.4408-.2641s.0775-.3598-.0248-.5133l-2-3c-.0927-.139-.2488-.2226-.416-.2226h-11c-.1844 0-.35383.1015-.44084.2641s-.07747.3598.02482.5133zm.68361-.7774-1.33333-2h9.79814l1.3333 2z"/></g></svg>